<svg width="1920" height="1080" viewBox="0 0 1920 1080" fill="none" xmlns="http://www.w3.org/2000/svg">
  <defs>
    <linearGradient id="bg" x1="0" y1="0" x2="1920" y2="1080" gradientUnits="userSpaceOnUse">
      <stop offset="0" stop-color="#05070C"/>
      <stop offset="1" stop-color="#0B0F18"/>
    </linearGradient>
    <radialGradient id="caustic1" cx="0" cy="0" r="1" gradientUnits="userSpaceOnUse" gradientTransform="translate(460 250) rotate(22) scale(500 300)">
      <stop stop-color="#3ED4FF" stop-opacity="0.33"/>
      <stop offset="1" stop-color="#3ED4FF" stop-opacity="0"/>
    </radialGradient>
    <radialGradient id="caustic2" cx="0" cy="0" r="1" gradientUnits="userSpaceOnUse" gradientTransform="translate(1420 820) rotate(14) scale(620 360)">
      <stop stop-color="#FF9A57" stop-opacity="0.24"/>
      <stop offset="1" stop-color="#FF9A57" stop-opacity="0"/>
    </radialGradient>
    <linearGradient id="glass" x1="0" y1="0" x2="1" y2="1">
      <stop offset="0" stop-color="#FFFFFF" stop-opacity="0.16"/>
      <stop offset="1" stop-color="#FFFFFF" stop-opacity="0.04"/>
    </linearGradient>
    <filter id="soft" x="-220" y="-220" width="2360" height="1520">
      <feGaussianBlur stdDeviation="10"/>
    </filter>
  </defs>

  <rect width="1920" height="1080" fill="url(#bg)"/>
  <rect width="1920" height="1080" fill="url(#caustic1)"/>
  <rect width="1920" height="1080" fill="url(#caustic2)"/>

  <g filter="url(#soft)">
    <path d="M-120 700C300 510 620 600 920 500C1280 380 1510 140 2050 180" stroke="#94DFFF" stroke-opacity="0.23" stroke-width="14"/>
    <path d="M-150 880C260 660 580 790 930 710C1210 640 1480 520 2010 560" stroke="#FFB17F" stroke-opacity="0.18" stroke-width="12"/>
  </g>

  <g transform="translate(170 120) rotate(-3 800 420)">
    <rect x="0" y="0" width="760" height="430" rx="34" fill="url(#glass)" stroke="#A4B4D5" stroke-opacity="0.35"/>
    <rect x="58" y="58" width="644" height="314" rx="28" fill="#DCE7FF" fill-opacity="0.04" stroke="#DCE7FF" stroke-opacity="0.25"/>
  </g>

  <g transform="translate(980 220) rotate(4 390 300)">
    <rect x="0" y="0" width="780" height="520" rx="36" fill="url(#glass)" stroke="#A4B4D5" stroke-opacity="0.34"/>
    <rect x="72" y="72" width="636" height="376" rx="30" fill="#E8F1FF" fill-opacity="0.05" stroke="#E8F1FF" stroke-opacity="0.23"/>
  </g>

  <g opacity="0.85">
    <rect x="130" y="88" width="252" height="44" rx="22" fill="#151B28" stroke="#3A4A68" stroke-opacity="0.65"/>
    <text x="156" y="116" fill="#D4E0FF" font-family="Inter, Arial, sans-serif" font-size="16" letter-spacing="0.07em">Editorial Black Glass</text>
  </g>
</svg>
