<svg width="1920" height="1080" viewBox="0 0 1920 1080" fill="none" xmlns="http://www.w3.org/2000/svg">
  <defs>
    <linearGradient id="bg" x1="0" y1="0" x2="1920" y2="1080" gradientUnits="userSpaceOnUse">
      <stop offset="0" stop-color="#070B14"/>
      <stop offset="0.55" stop-color="#0E1626"/>
      <stop offset="1" stop-color="#111C31"/>
    </linearGradient>
    <linearGradient id="ribbonCyan" x1="0" y1="0" x2="1920" y2="0" gradientUnits="userSpaceOnUse">
      <stop offset="0" stop-color="#58E2FF" stop-opacity="0"/>
      <stop offset="0.35" stop-color="#58E2FF" stop-opacity="0.65"/>
      <stop offset="0.7" stop-color="#5FA8FF" stop-opacity="0.58"/>
      <stop offset="1" stop-color="#5FA8FF" stop-opacity="0"/>
    </linearGradient>
    <linearGradient id="ribbonWarm" x1="0" y1="0" x2="1920" y2="0" gradientUnits="userSpaceOnUse">
      <stop offset="0" stop-color="#FFBB8A" stop-opacity="0"/>
      <stop offset="0.42" stop-color="#FFBB8A" stop-opacity="0.48"/>
      <stop offset="0.78" stop-color="#FFC978" stop-opacity="0.41"/>
      <stop offset="1" stop-color="#FFC978" stop-opacity="0"/>
    </linearGradient>
    <filter id="glow" x="-240" y="-240" width="2400" height="1560">
      <feGaussianBlur stdDeviation="8"/>
    </filter>
  </defs>

  <rect width="1920" height="1080" fill="url(#bg)"/>

  <g stroke="#80C8FF" stroke-opacity="0.12" stroke-width="1">
    <path d="M0 180H1920"/>
    <path d="M0 270H1920"/>
    <path d="M0 360H1920"/>
    <path d="M0 450H1920"/>
    <path d="M0 540H1920"/>
    <path d="M0 630H1920"/>
    <path d="M0 720H1920"/>
    <path d="M0 810H1920"/>
    <path d="M0 900H1920"/>
  </g>

  <g filter="url(#glow)">
    <path d="M-40 870C250 760 430 650 700 670C980 690 1180 920 1440 870C1660 830 1780 720 1960 700" stroke="url(#ribbonCyan)" stroke-width="22" stroke-linecap="round"/>
    <path d="M-40 780C180 620 430 540 690 560C960 580 1110 770 1380 760C1600 750 1780 620 1980 560" stroke="url(#ribbonCyan)" stroke-width="18" stroke-linecap="round"/>
    <path d="M-20 690C260 530 480 470 760 500C980 525 1230 700 1480 680C1710 660 1830 550 1980 500" stroke="url(#ribbonWarm)" stroke-width="14" stroke-linecap="round"/>
    <path d="M-60 600C230 470 460 400 730 430C1020 465 1230 620 1510 620C1720 620 1860 550 1990 520" stroke="url(#ribbonCyan)" stroke-width="10" stroke-linecap="round"/>
  </g>

  <g stroke="#9FD7FF" stroke-opacity="0.26" stroke-width="2" fill="none">
    <path d="M120 740C290 640 470 620 650 640C850 660 1050 760 1220 760C1410 760 1570 680 1760 620"/>
    <path d="M170 635C360 560 540 540 710 560C920 585 1090 670 1280 670C1470 670 1630 600 1800 540"/>
    <path d="M220 540C390 485 570 470 760 495C960 525 1160 610 1350 610C1530 610 1680 560 1840 500"/>
  </g>

  <g opacity="0.86">
    <rect x="124" y="92" width="214" height="44" rx="22" fill="#141E33" stroke="#4A6BA3" stroke-opacity="0.6"/>
    <text x="152" y="119" fill="#C6D7FF" font-family="Inter, Arial, sans-serif" font-size="16" letter-spacing="0.07em">Data Tapestry</text>
  </g>
</svg>
